<svg width="24" height="23" viewBox="0 0 24 23" fill="none" xmlns="http://www.w3.org/2000/svg">
<g filter="url(#filter0_d_9_141)">
<path d="M19.6657 4.87759C19.4817 4.13853 18.9395 3.55647 18.2511 3.35894C17.0033 3 12 3 12 3C12 3 6.99669 3 5.7489 3.35894C5.06052 3.5565 4.51835 4.13853 4.33434 4.87759C4 6.21719 4 9.01213 4 9.01213C4 9.01213 4 11.8071 4.33434 13.1467C4.51835 13.8857 5.06052 14.4435 5.7489 14.6411C6.99669 15 12 15 12 15C12 15 17.0033 15 18.2511 14.6411C18.9395 14.4435 19.4817 13.8857 19.6657 13.1467C20 11.8071 20 9.01213 20 9.01213C20 9.01213 20 6.21719 19.6657 4.87759ZM10.3636 11.5497V6.47453L14.5454 9.01219L10.3636 11.5497Z" fill="#75757F"/>
</g>
<defs>
<filter id="filter0_d_9_141" x="-2" y="0" width="28" height="25.7778" filterUnits="userSpaceOnUse" color-interpolation-filters="sRGB">
<feFlood flood-opacity="0" result="BackgroundImageFix"/>
<feColorMatrix in="SourceAlpha" type="matrix" values="0 0 0 0 0 0 0 0 0 0 0 0 0 0 0 0 0 0 127 0" result="hardAlpha"/>
<feOffset dy="4"/>
<feGaussianBlur stdDeviation="2"/>
<feComposite in2="hardAlpha" operator="out"/>
<feColorMatrix type="matrix" values="0 0 0 0 0 0 0 0 0 0 0 0 0 0 0 0 0 0 0.25 0"/>
<feBlend mode="normal" in2="BackgroundImageFix" result="effect1_dropShadow_9_141"/>
<feBlend mode="normal" in="SourceGraphic" in2="effect1_dropShadow_9_141" result="shape"/>
</filter>
</defs>
</svg>
